<?xml version="1.0" encoding="UTF-8"?>
<svg version="1.1" xmlns="http://www.w3.org/2000/svg" width="1024" height="1024">
<path d="M0 0 C337.92 0 675.84 0 1024 0 C1024 337.92 1024 675.84 1024 1024 C686.08 1024 348.16 1024 0 1024 C0 686.08 0 348.16 0 0 Z " fill="#F3F5F9" transform="translate(0,0)"/>
<path d="M0 0 C0.82781982 0.11762695 1.65563965 0.23525391 2.50854492 0.35644531 C11.47213986 1.77236921 19.74330406 4.35047195 27.8125 8.5 C28.50335693 8.8511084 29.19421387 9.2022168 29.90600586 9.56396484 C34.90517076 12.15892416 39.40022886 15.01848782 43.6875 18.6875 C44.26371094 19.13351562 44.83992187 19.57953125 45.43359375 20.0390625 C63.6811646 34.58835061 70.72480475 58.14598362 73.40084839 80.45291138 C74.37585171 91.45488917 74.12798636 102.57658748 74.07861328 113.61206055 C74.06150684 117.47689507 74.07168489 121.34111058 74.08893585 125.20592403 C74.21411562 158.22108812 71.48493286 188.86767348 47.60546875 213.8671875 C26.203436 234.27654712 -3.84152117 237.42522847 -31.95605469 236.83251953 C-38.6343054 236.54397713 -44.83686298 235.31596598 -51.3125 233.6875 C-52.31152344 233.50574219 -53.31054688 233.32398438 -54.33984375 233.13671875 C-71.8564207 229.68042773 -88.77135982 217.87915799 -99.3125 203.6875 C-112.93945411 182.71317697 -116.43578446 160.73365283 -116.55078125 136.05078125 C-116.55485678 135.30318228 -116.5589323 134.55558331 -116.56313133 133.78532982 C-116.58390046 129.81774562 -116.59823392 125.85019492 -116.60766602 121.88256836 C-116.6164652 118.65060218 -116.63720672 115.41907446 -116.66918945 112.18725586 C-116.9470778 83.46813769 -116.68387278 54.46822143 -98.3125 30.6875 C-97.65765625 29.83800781 -97.0028125 28.98851562 -96.328125 28.11328125 C-81.0704633 9.84423896 -59.61954554 1.53828865 -36.45214844 -1.1315918 C-24.332029 -2.15635315 -12.02747003 -1.71587103 0 0 Z " fill="#276BE5" transform="translate(632.3125,394.3125)"/>
<path d="M0 0 C17.16 0 34.32 0 52 0 C54.20233719 4.95525868 56.40421033 9.91025477 58.59375 14.87109375 C64.1827237 27.50728588 69.86795816 40.08917365 75.69580078 52.61743164 C79.27306962 60.34024874 82.65830667 68.13015847 85.97143555 75.96923828 C89.90222078 86.70084356 89.90222078 86.70084356 96 96 C98.33297433 96.04092937 100.66705225 96.04241723 103 96 C103.33644531 94.85402344 103.67289062 93.70804687 104.01953125 92.52734375 C106.29538452 85.70777407 109.5063542 79.29407077 112.60604858 72.8213501 C114.43585415 68.9993971 116.24858357 65.16935678 118.0625 61.33984375 C118.41475143 60.59710205 118.76700287 59.85436035 119.12992859 59.08911133 C121.5556017 53.96577352 123.91949251 48.82033434 126.1875 43.625 C130.14448865 34.56302143 134.33655133 25.61077601 138.5222168 16.65283203 C139.05758057 15.50540527 139.59294434 14.35797852 140.14453125 13.17578125 C140.86153198 11.64304565 140.86153198 11.64304565 141.59301758 10.0793457 C143.11691896 6.74410916 144.55554148 3.37040321 146 0 C163.16 0 180.32 0 198 0 C196.47943333 3.80141667 194.88257769 7.36369132 193.05859375 11.015625 C192.47932129 12.17610352 191.90004883 13.33658203 191.30322266 14.53222656 C190.68149344 15.77157385 190.05958225 17.01082987 189.4375 18.25 C189.12286804 18.87837769 188.80823608 19.50675537 188.48406982 20.1541748 C184.43595088 28.2370177 180.32225658 36.27921084 176.0546875 44.2487793 C173.61086962 48.81892468 171.24698068 53.42304768 168.9375 58.0625 C168.64318085 58.65232162 168.34886169 59.24214325 168.04562378 59.84983826 C166.49626374 62.9618383 164.96359635 66.07705401 163.47851562 69.22045898 C160.02275086 76.40913093 156.26631998 83.29145905 152.12909031 90.1147871 C123.64345212 137.21623468 118.47031315 175.388685 122 230 C106.49 230 90.98 230 75 230 C75.020625 224.410625 75.04125 218.82125 75.0625 213.0625 C75.05776324 209.48945656 75.05065623 205.91672364 75.03515625 202.34375 C75.01085559 196.69109974 74.99461864 191.03934799 75.03076172 185.38671875 C75.05939745 180.82146178 75.04823499 176.25777584 75.01119995 171.69259644 C75.00383972 169.96418556 75.01004339 168.23565379 75.03103638 166.50735474 C75.16059276 154.86960787 73.19725116 146.63624935 67.40951538 136.541008 C64.77245586 131.78704119 62.40425472 126.89316445 59.98971272 122.02359605 C58.34626135 118.71533239 56.68757664 115.41471419 55.03088379 112.11306763 C54.33090863 110.71661951 53.63102482 109.32012561 52.93122864 107.9235878 C52.57822756 107.2191474 52.22522648 106.514707 51.8615284 105.78891993 C47.74826275 97.57933004 43.63767468 89.36839839 39.52695465 81.15753365 C35.60638546 73.3267608 31.68428121 65.49676336 27.75878906 57.66845703 C24.31314589 50.79706402 20.87028975 43.92428321 17.43081236 37.04980171 C15.61540302 33.4215905 13.79858995 29.79409774 11.97840881 26.16827774 C10.27421357 22.77340374 8.57373106 19.37669688 6.87614822 15.97851181 C6.2518739 14.73051533 5.62621857 13.4832086 4.99911118 12.2366333 C4.14632862 10.54095555 3.2988985 8.84258906 2.45178223 7.14407349 C1.97546608 6.19328478 1.49914993 5.24249607 1.00839996 4.26289558 C0 2 0 2 0 0 Z " fill="#276AE5" transform="translate(313,397)"/>
<path d="M0 0 C0.95350342 -0.00644531 1.90700684 -0.01289063 2.8894043 -0.01953125 C14.97482881 0.19678131 26.72295449 3.71207066 35.90625 11.875 C49.1207135 26.49525749 50.67747489 45.22004034 50.7109375 64.05078125 C50.71739659 65.40252306 50.72412698 66.7542636 50.73110962 68.10600281 C50.74296447 70.9169742 50.74680267 73.72782381 50.74560547 76.53881836 C50.74544294 79.38282708 50.75934836 82.22619154 50.78662109 85.07006836 C51.22079654 131.04861419 51.22079654 131.04861419 36.16796875 146.9140625 C25.35130767 156.48174093 11.8500618 160.35246512 -2.46484375 159.8203125 C-16.33556381 158.41438043 -27.05824958 153.7346179 -36.625 143.5 C-44.88134917 132.9502205 -47.72549587 118.99977758 -47.77026367 105.8371582 C-47.77664352 104.55504959 -47.78302338 103.27294098 -47.78959656 101.95198059 C-47.79112607 100.56824787 -47.79223958 99.18451463 -47.79296875 97.80078125 C-47.79618861 96.35979684 -47.79955321 94.91881274 -47.80305481 93.47782898 C-47.80902411 90.46283207 -47.81089708 87.44786372 -47.81030273 84.43286133 C-47.81020146 80.60145916 -47.82382726 76.77024376 -47.84107494 72.93888569 C-47.85228929 69.9625721 -47.85421904 66.98630225 -47.85369301 64.00996971 C-47.85485998 62.59921821 -47.8592081 61.18846508 -47.86702538 59.77773476 C-47.95111775 43.02963285 -45.83920337 26.73967623 -34.625 13.5 C-24.50353988 3.34173457 -13.9591357 0.08957495 0 0 Z " fill="#FCFDFE" transform="translate(609.625,432.5)"/>
<path d="M0 0 C0.66 0 1.32 0 2 0 C2 0.66 2 1.32 2 2 C2.66 2 3.32 2 4 2 C4.66 3.98 5.32 5.96 6 8 C6.66 7.67 7.32 7.34 8 7 C8 33.73 8 60.46 8 88 C21.86 88 35.72 88 50 88 C50 62.26 50 36.52 50 10 C50.66 10 51.32 10 52 10 C52 36.4 52 62.8 52 90 C36.49 90 20.98 90 5 90 C4.97421875 84.3178125 4.9484375 78.635625 4.921875 72.78125 C4.89669513 69.17183048 4.87035352 65.5624938 4.83984375 61.953125 C4.7915751 56.22981499 4.74750552 50.50669686 4.72900391 44.78320312 C4.71380988 40.16641887 4.67931578 35.55013809 4.63169098 30.93357849 C4.61690544 29.17626838 4.60896061 27.41888639 4.60811615 25.66151428 C4.60573614 23.19112076 4.57857555 20.72210706 4.54589844 18.25195312 C4.5509288 17.53265625 4.55595917 16.81335938 4.56114197 16.07226562 C4.46247614 11.22060648 3.25207185 7.87331842 0.85580826 3.65520477 C0 2 0 2 0 0 Z " fill="#2F65B8" transform="translate(383,537)"/>
<path d="M0 0 C0.66 0 1.32 0 2 0 C2 31.68 2 63.36 2 96 C1.34 96 0.68 96 0 96 C-0.33 93.69 -0.66 91.38 -1 89 C-1.33 89 -1.66 89 -2 89 C-2 61.61 -2 34.22 -2 6 C-1.67 6 -1.34 6 -1 6 C-0.67 4.02 -0.34 2.04 0 0 Z " fill="#1E60D2" transform="translate(662,464)"/>
<path d="M0 0 C2.35823835 3.94449733 3.1036318 8.25045589 4.0625 12.6875 C4.23587891 13.45255859 4.40925781 14.21761719 4.58789062 15.00585938 C6.88253164 25.44164054 7.17504811 35.69895427 7.203125 46.33984375 C7.20595238 47.0703702 7.20877975 47.80089664 7.21169281 48.55356026 C7.22661237 52.42576573 7.23588537 56.29793469 7.24023438 60.17016602 C7.24460545 63.33239365 7.25845354 66.49434635 7.28125 69.65649414 C7.4184953 89.07722535 6.80932375 107.05382314 2 126 C1.67 126 1.34 126 1 126 C1.33 121.38 1.66 116.76 2 112 C2.66 112 3.32 112 4 112 C4.04645007 101.33359916 4.08193345 90.6672226 4.10362434 80.000741 C4.11403768 75.04725114 4.12815196 70.09383075 4.15087891 65.14038086 C4.17269486 60.35524759 4.18458704 55.57018094 4.18975449 50.78500175 C4.19343457 48.96426788 4.20062068 47.14353743 4.21146011 45.32283211 C4.22609153 42.76209918 4.22797311 40.2016375 4.22705078 37.64086914 C4.23424133 36.89711533 4.24143188 36.15336151 4.24884033 35.3870697 C4.23081121 30.72624375 3.5929031 26.5062131 2.46652031 21.98235226 C1.84313608 19.33344906 1.61852726 16.71155719 1.4375 14 C1.46824131 10.68921085 1.46824131 10.68921085 0 8 C-0.14115161 5.32941149 -0.04247107 2.67567762 0 0 Z " fill="#4574C5" transform="translate(699,447)"/>
<path d="M0 0 C-7.32828012 0.02553307 -14.65654859 0.04294317 -21.98486328 0.05493164 C-24.47347441 0.05993404 -26.96208265 0.06673805 -29.45068359 0.07543945 C-33.04525471 0.08768549 -36.63978669 0.09326941 -40.234375 0.09765625 C-41.33174988 0.10281754 -42.42912476 0.10797882 -43.55975342 0.11329651 C-50.75439854 0.11380907 -57.84061385 -0.29164144 -65 -1 C-65 -1.33 -65 -1.66 -65 -2 C-47.18497243 -5.73648518 -16.07246346 -10.71497564 0 0 Z " fill="#3871D6" transform="translate(645,398)"/>
<path d="M0 0 C0.33 0 0.66 0 1 0 C0.97068893 0.57894516 0.94137787 1.15789032 0.91117859 1.75437927 C0.04729123 19.38321764 -0.18797546 36.98715922 -0.18530273 54.63256836 C-0.18520017 58.34647493 -0.19900567 62.06019441 -0.21607494 65.77405643 C-0.22731251 68.70245683 -0.22921861 71.63081299 -0.22869301 74.55923271 C-0.23039869 76.57726852 -0.24112766 78.59529059 -0.25224304 80.61329651 C-0.22315541 92.52099074 0.35514508 104.71631746 4.51171875 115.984375 C5.08125874 118.33543608 4.76134196 119.73130316 4 122 C3.18663748 119.69340323 2.40032116 117.38192987 1.625 115.0625 C1.29242187 114.13147461 1.29242187 114.13147461 0.953125 113.18164062 C-3.30505526 100.21923896 -3.31562531 85.95897689 -3.30078125 72.44140625 C-3.30468878 70.91698596 -3.30902748 69.39256673 -3.31376648 67.8681488 C-3.32114437 64.70267171 -3.32099917 61.53730632 -3.31567383 58.37182617 C-3.31103401 55.16725665 -3.31800378 51.96306583 -3.33618164 48.75854492 C-3.52817795 14.69339943 -3.52817795 14.69339943 0 0 Z " fill="#3A6DBC" transform="translate(519,457)"/>
<path d="M0 0 C17.16 0 34.32 0 52 0 C50.43625021 3.90937449 48.76952365 7.56463799 46.875 11.3125 C46.33617187 12.38113281 45.79734375 13.44976562 45.2421875 14.55078125 C44.83226562 15.35902344 44.42234375 16.16726563 44 17 C43 14 43 14 45 3 C30.15 3 15.3 3 0 3 C0 2.01 0 1.02 0 0 Z " fill="#2761C5" transform="translate(459,397)"/>
<path d="M0 0 C0.66 0 1.32 0 2 0 C2 0.66 2 1.32 2 2 C2.66 2 3.32 2 4 2 C4.66 3.98 5.32 5.96 6 8 C6.66 7.67 7.32 7.34 8 7 C8 33.73 8 60.46 8 88 C7.01 88 6.02 88 5 88 C4.99453156 86.56086243 4.99453156 86.56086243 4.98895264 85.09265137 C4.95193453 76.02979792 4.89408765 66.96728211 4.81609726 57.90468597 C4.77666858 53.24601376 4.74445757 48.58752926 4.72900391 43.92871094 C4.71380685 39.42862991 4.67930755 34.92906511 4.63169098 30.42921448 C4.61690853 28.7165629 4.60896079 27.0038376 4.60811615 25.29112244 C4.71735187 13.07336418 4.71735187 13.07336418 0 2 C0 1.34 0 0.68 0 0 Z " fill="#3B72C6" transform="translate(383,537)"/>
<path d="M0 0 C22.77 0.33 45.54 0.66 69 1 C69 1.66 69 2.32 69 3 C46.56 3 24.12 3 1 3 C0.67 2.01 0.34 1.02 0 0 Z " fill="#1D61DF" transform="translate(578,397)"/>
<path d="M0 0 C0.33 0 0.66 0 1 0 C1 1.65 1 3.3 1 5 C0.34 5 -0.32 5 -1 5 C-1.33 9.95 -1.66 14.9 -2 20 C-3.65 19.34 -5.3 18.68 -7 18 C-7 19.32 -7 20.64 -7 22 C-7.66 22 -8.32 22 -9 22 C-9.02578125 22.98742187 -9.0515625 23.97484375 -9.078125 24.9921875 C-9.13484375 26.27351563 -9.1915625 27.55484375 -9.25 28.875 C-9.31960938 30.78925781 -9.31960938 30.78925781 -9.390625 32.7421875 C-9.59171875 33.81726563 -9.7928125 34.89234375 -10 36 C-11.984375 37.3203125 -11.984375 37.3203125 -14 38 C-14.33 38.66 -14.66 39.32 -15 40 C-15.66 40 -16.32 40 -17 40 C-17 40.66 -17 41.32 -17 42 C-17.99 41.67 -18.98 41.34 -20 41 C-19.34 41 -18.68 41 -18 41 C-17.66355469 39.85660156 -17.32710938 38.71320313 -16.98046875 37.53515625 C-14.432697 29.89184101 -10.76874081 22.70033589 -7.3125 15.4375 C-6.60304932 13.93706935 -5.89406098 12.43642001 -5.18554688 10.93554688 C-3.4623541 7.28781998 -1.73292193 3.64311429 0 0 Z " fill="#3167C9" transform="translate(434,452)"/>
<path d="M0 0 C17.16 0 34.32 0 52 0 C52.495 1.98 52.495 1.98 53 4 C52.34 4 51.68 4 51 4 C51 3.34 51 2.68 51 2 C35.49 2.33 19.98 2.66 4 3 C4.33 5.31 4.66 7.62 5 10 C2.12239928 6.59919915 1.53048177 4.59144531 0 0 Z " fill="#3D6DB7" transform="translate(313,397)"/>
<path d="M0 0 C3.95092059 -0.07409401 7.90157294 -0.12857406 11.85302734 -0.16479492 C13.85919374 -0.18732251 15.86516526 -0.2254357 17.87109375 -0.26367188 C19.12792969 -0.27333984 20.38476562 -0.28300781 21.6796875 -0.29296875 C22.84226074 -0.3086792 24.00483398 -0.32438965 25.20263672 -0.34057617 C26.1257666 -0.22818604 27.04889648 -0.1157959 28 0 C28.66 0.99 29.32 1.98 30 3 C29.21987549 2.97381592 28.43975098 2.94763184 27.63598633 2.9206543 C24.02837068 2.81535553 20.42107977 2.75125583 16.8125 2.6875 C15.58595703 2.64560547 14.35941406 2.60371094 13.09570312 2.56054688 C0.2790648 2.39146194 -9.81514538 6.34162095 -20 14 C-20 12.02 -20 10.04 -20 8 C-18.906875 7.855625 -17.81375 7.71125 -16.6875 7.5625 C-13.06877013 7.11711896 -13.06877013 7.11711896 -10 6 C-10 5.34 -10 4.68 -10 4 C-8.68 4 -7.36 4 -6 4 C-6 3.34 -6 2.68 -6 2 C-4.02 2 -2.04 2 0 2 C0 1.34 0 0.68 0 0 Z " fill="#3A6CC2" transform="translate(596,431)"/>
<path d="M0 0 C21.12 0 42.24 0 64 0 C64 0.66 64 1.32 64 2 C61.31924841 3.3403758 59.68458773 2.88109147 56.69921875 2.5703125 C48.00546191 1.82557806 39.332864 1.84963588 30.61206055 1.86962891 C27.77973254 1.87506287 24.94755803 1.86961482 22.11523438 1.86328125 C20.31249965 1.86394083 18.50976502 1.86521948 16.70703125 1.8671875 C15.86131058 1.86516327 15.0155899 1.86313904 14.14424133 1.86105347 C9.93834141 1.76225668 9.93834141 1.76225668 6 3 C3.99199544 2.71887936 1.98985949 2.38932033 0 2 C0 1.34 0 0.68 0 0 Z " fill="#195EDF" transform="translate(583,624)"/>
<path d="M0 0 C0.99966797 0.68835938 0.99966797 0.68835938 2.01953125 1.390625 C17.71699991 11.84096777 32.54929367 13.3323692 51 11 C51 11.66 51 12.32 51 13 C38.1484635 14.80372442 25.74465526 14.19938581 13 12 C13 11.34 13 10.68 13 10 C8.7494534 8.14038586 4.50066475 7.06795435 0 6 C0 4.02 0 2.04 0 0 Z " fill="#3C6EBD" transform="translate(576,579)"/>
<path d="M0 0 C2.15208211 2.15208211 2.86139818 3.71990618 4.0234375 6.5078125 C4.405 7.41273438 4.7865625 8.31765625 5.1796875 9.25 C5.57414062 10.19875 5.96859375 11.1475 6.375 12.125 C9.63129933 19.93158915 9.63129933 19.93158915 13.2890625 27.5546875 C15 31 15 31 15 33 C13.68 32.67 12.36 32.34 11 32 C11 31.01 11 30.02 11 29 C10.34 29 9.68 29 9 29 C8.5978125 27.5459375 8.5978125 27.5459375 8.1875 26.0625 C7.79406279 24.70763523 7.39795673 23.35354417 7 22 C6.77054687 21.19691406 6.54109375 20.39382813 6.3046875 19.56640625 C6.05976563 18.76074219 5.81484375 17.95507812 5.5625 17.125 C5.33691406 16.36445313 5.11132812 15.60390625 4.87890625 14.8203125 C4.58886719 14.21960938 4.29882812 13.61890625 4 13 C3.01 12.67 2.02 12.34 1 12 C0.67 8.04 0.34 4.08 0 0 Z " fill="#396CC8" transform="translate(383,439)"/>
<path d="M0 0 C15.84 0 31.68 0 48 0 C48 0.66 48 1.32 48 2 C48.66 2 49.32 2 50 2 C50.495 3.98 50.495 3.98 51 6 C48.525 5.505 48.525 5.505 46 5 C46 3.68 46 2.36 46 1 C32.14 1 18.28 1 4 1 C4 3.64 4 6.28 4 9 C3.34 9 2.68 9 2 9 C1.34 6.03 0.68 3.06 0 0 Z " fill="#2564D6" transform="translate(316,399)"/>
<path d="M0 0 C5.94 0.66 11.88 1.32 18 2 C18 2.66 18 3.32 18 4 C18.84304688 4.04898438 19.68609375 4.09796875 20.5546875 4.1484375 C22.19824219 4.26058594 22.19824219 4.26058594 23.875 4.375 C24.96554687 4.44460938 26.05609375 4.51421875 27.1796875 4.5859375 C30 5 30 5 32 7 C20.92558864 7.67230828 9.1273314 6.84549855 0 0 Z " fill="#316ACF" transform="translate(565,622)"/>
<path d="M0 0 C9.06944438 3.66462877 14.43995789 15.01107918 18.98046875 23.15234375 C20 26 20 26 19.17578125 28.37890625 C18.78777344 28.91386719 18.39976562 29.44882812 18 30 C17.82984375 29.39671875 17.6596875 28.7934375 17.484375 28.171875 C16.00890183 23.30595283 14.75100677 20.51656885 11 17 C10.2575 15.205625 10.2575 15.205625 9.5 13.375 C8.33311864 9.98413849 8.33311864 9.98413849 6 8.5625 C3.86494057 7.86462721 3.86494057 7.86462721 1 8 C1.020625 7.236875 1.04125 6.47375 1.0625 5.6875 C1.12942841 2.89814214 1.12942841 2.89814214 0 0 Z " fill="#356AC5" transform="translate(678,416)"/>
<path d="M0 0 C17.16 0 34.32 0 52 0 C50.47426795 3.81433013 49.47253678 5.96552304 47 9 C47.33 6.36 47.66 3.72 48 1 C32.16 1 16.32 1 0 1 C0 0.67 0 0.34 0 0 Z " fill="#557CB5" transform="translate(459,397)"/>
<path d="M0 0 C0 0.33 0 0.66 0 1 C-1.06927734 1.09087891 -1.06927734 1.09087891 -2.16015625 1.18359375 C-8.47490322 1.73602787 -14.71361693 2.39575761 -20.953125 3.54296875 C-22.02046875 3.73503906 -23.0878125 3.92710937 -24.1875 4.125 C-25.19167969 4.31320312 -26.19585938 4.50140625 -27.23046875 4.6953125 C-29.86472751 4.98511812 -31.51684606 4.8415462 -34 4 C-23.4552655 -1.77511131 -11.62791388 -0.3810989 0 0 Z " fill="#DEF1FC" transform="translate(621,433)"/>
<path d="M0 0 C0.66 0 1.32 0 2 0 C2.84114171 1.43294498 3.67265687 2.87154405 4.5 4.3125 C5.19609375 5.51326172 5.19609375 5.51326172 5.90625 6.73828125 C7 9 7 9 7 12 C7.99 12.33 8.98 12.66 10 13 C11.1328125 15.109375 11.1328125 15.109375 12.125 17.75 C12.45757812 18.61109375 12.79015625 19.4721875 13.1328125 20.359375 C14 23 14 23 14.4921875 25.765625 C14.65976562 26.50296875 14.82734375 27.2403125 15 28 C15.66 28.33 16.32 28.66 17 29 C16.34 29.66 15.68 30.32 15 31 C12.86123454 26.74711797 10.72505727 22.49295009 8.59130859 18.23754883 C7.86448708 16.7889464 7.13694926 15.34070314 6.40869141 13.89282227 C5.36434114 11.81619926 4.32254167 9.73831426 3.28125 7.66015625 C2.95314331 7.00910416 2.62503662 6.35805206 2.2869873 5.68727112 C0 1.11387171 0 1.11387171 0 0 Z " fill="#3D6EC5" transform="translate(358,488)"/>
<path d="M0 0 C2.20342678 4.12551597 3.12369959 8.21077149 4.125 12.75 C4.39763672 13.91015625 4.39763672 13.91015625 4.67578125 15.09375 C5.81015382 20.17710377 6.1783141 24.79322821 6 30 C4 29 4 29 3.40234375 27.3203125 C2.26504402 21.9491995 1.6189471 16.66616146 1.24609375 11.1875 C1.23307532 9.02520089 1.23307532 9.02520089 0 8 C-0.14115161 5.32941149 -0.04247107 2.67567762 0 0 Z " fill="#3D70C7" transform="translate(699,447)"/>
<path d="M0 0 C0.33 0 0.66 0 1 0 C1 1.65 1 3.3 1 5 C0.34 5 -0.32 5 -1 5 C-1.33 9.95 -1.66 14.9 -2 20 C-4.475 19.01 -4.475 19.01 -7 18 C-6.35534798 13.66695924 -4.81074878 10.13327935 -2.9375 6.1875 C-2.11572266 4.44533203 -2.11572266 4.44533203 -1.27734375 2.66796875 C-0.85582031 1.78753906 -0.43429687 0.90710938 0 0 Z " fill="#2C65CB" transform="translate(434,452)"/>
<path d="M0 0 C0.66 0 1.32 0 2 0 C1.38123633 2.79332013 0.53253883 5.19129582 -0.7421875 7.75 C-1.08636719 8.4409375 -1.43054688 9.131875 -1.78515625 9.84375 C-2.14480469 10.5553125 -2.50445312 11.266875 -2.875 12 C-3.22691406 12.7115625 -3.57882812 13.423125 -3.94140625 14.15625 C-5.71135915 17.68299629 -7.46844697 20.9430303 -10 24 C-10 22.02 -10 20.04 -10 18 C-9.34 18 -8.68 18 -8 18 C-7.7525 17.21625 -7.505 16.4325 -7.25 15.625 C-5.66068507 11.01598671 -3.83792827 6.51452284 -2 2 C-1.34 2 -0.68 2 0 2 C0 1.34 0 0.68 0 0 Z " fill="#3F6EBF" transform="translate(485,443)"/>
<path d="M0 0 C2 3 2 3 1.625 6.1875 C1.315625 7.5796875 1.315625 7.5796875 1 9 C0.67 8.01 0.34 7.02 0 6 C-0.66 6 -1.32 6 -2 6 C-4.12046792 9.53411321 -4.53199289 12.94393835 -5 17 C-5.99 16.67 -6.98 16.34 -8 16 C-8.66 16 -9.32 16 -10 16 C-10.33 16.66 -10.66 17.32 -11 18 C-13.5625 18.625 -13.5625 18.625 -16 19 C-11 14 -11 14 -8.5625 11.75 C-5.20142278 8.1429903 -2.63400481 4.15466738 0 0 Z " fill="#3469C6" transform="translate(653,567)"/>
<path d="M0 0 C1.30092709 3.90278127 0.36437068 5.15452503 -1.25 8.875 C-1.68828125 9.90367187 -2.1265625 10.93234375 -2.578125 11.9921875 C-3.89901912 14.78638661 -5.35882119 17.3837679 -7 20 C-7.66 19.67 -8.32 19.34 -9 19 C-9 17.02 -9 15.04 -9 13 C-8.01 12.67 -7.02 12.34 -6 12 C-6 11.34 -6 10.68 -6 10 C-5.01 10 -4.02 10 -3 10 C-2.814375 8.3603125 -2.814375 8.3603125 -2.625 6.6875 C-2 3 -2 3 0 0 Z " fill="#396ECD" transform="translate(699,573)"/>
<path d="M0 0 C0.99 0.33 1.98 0.66 3 1 C3 1.66 3 2.32 3 3 C4.32 3.66 5.64 4.32 7 5 C7 5.66 7 6.32 7 7 C7.66 7 8.32 7 9 7 C9 7.66 9 8.32 9 9 C9.56589844 9.25910156 10.13179687 9.51820313 10.71484375 9.78515625 C13.22707405 11.120718 15.32728237 12.67882623 17.5625 14.4375 C18.32691406 15.03433594 19.09132813 15.63117187 19.87890625 16.24609375 C21.7000758 17.75199638 23.36765515 19.29464292 25 21 C16.09068943 17.83188776 5.39419725 10.31791171 0.81640625 1.796875 C0.54699219 1.20390625 0.27757812 0.6109375 0 0 Z " fill="#3D6EC1" transform="translate(534,598)"/>
<path d="M0 0 C1.65 0 3.3 0 5 0 C1.84584937 4.54803033 -1.48942759 6.76288449 -6.25 9.3125 C-6.8996875 9.67150391 -7.549375 10.03050781 -8.21875 10.40039062 C-9.80729753 11.27642786 -11.40295142 12.13955805 -13 13 C-13.66 12.34 -14.32 11.68 -15 11 C-13.865625 10.54625 -12.73125 10.0925 -11.5625 9.625 C-7.95278308 8.42904194 -7.95278308 8.42904194 -7 6 C-6.195625 5.71125 -5.39125 5.4225 -4.5625 5.125 C-1.86394485 4.22949848 -1.86394485 4.22949848 -0.6875 1.875 C-0.460625 1.25625 -0.23375 0.6375 0 0 Z " fill="#4271C1" transform="translate(672,609)"/>
<path d="M0 0 C3.50660513 2.74842024 4.66425151 6.65935398 6.1875 10.6875 C6.46013672 11.38939453 6.73277344 12.09128906 7.01367188 12.81445312 C7.68285545 14.54024235 8.34238475 16.26976959 9 18 C8.01 18 7.02 18 6 18 C6 17.01 6 16.02 6 15 C5.34 15 4.68 15 4 15 C4 13.68 4 12.36 4 11 C3.34 11 2.68 11 2 11 C0.80712589 7.12315913 0 4.08378077 0 0 Z " fill="#366AC2" transform="translate(367,405)"/>
<path d="M0 0 C0 0.33 0 0.66 0 1 C-3.86883324 1.90777093 -7.46730729 2.13435263 -11.4375 2.125 C-12.52933594 2.12757813 -13.62117187 2.13015625 -14.74609375 2.1328125 C-17.91192524 2.00359489 -20.89035545 1.59097317 -24 1 C-24 0.67 -24 0.34 -24 0 C-15.88611956 -1.21521251 -8.14648632 -0.76299944 0 0 Z " fill="#C9E1F5" transform="translate(622,590)"/>
<path d="M0 0 C0.74765625 0.48210938 1.4953125 0.96421875 2.265625 1.4609375 C3.74289062 2.40839844 3.74289062 2.40839844 5.25 3.375 C6.22453125 4.00148438 7.1990625 4.62796875 8.203125 5.2734375 C10.43521615 6.65134852 12.63087422 7.88312642 15 9 C15 9.66 15 10.32 15 11 C15.66 11.33 16.32 11.66 17 12 C15.68 12 14.36 12 13 12 C13 11.34 13 10.68 13 10 C8.7494534 8.14038586 4.50066475 7.06795435 0 6 C0 4.02 0 2.04 0 0 Z " fill="#3068CC" transform="translate(576,579)"/>
<path d="M0 0 C0.66 0.33 1.32 0.66 2 1 C1.41992188 1.80050781 1.41992188 1.80050781 0.828125 2.6171875 C-3.04394656 8.15693345 -5.74170838 13.63693125 -8 20 C-8.33 20 -8.66 20 -9 20 C-8.125 12.375 -8.125 12.375 -7 9 C-6.34 9 -5.68 9 -5 9 C-5.33 7.02 -5.66 5.04 -6 3 C-5.195625 2.690625 -4.39125 2.38125 -3.5625 2.0625 C-1.10919595 1.23664655 -1.10919595 1.23664655 0 0 Z " fill="#3A6BC4" transform="translate(574,445)"/>
<path d="M0 0 C0.66 0 1.32 0 2 0 C0.58446303 4.29302197 -1.51000523 7.00522236 -4.5625 10.3125 C-5.36816406 11.19550781 -6.17382812 12.07851563 -7.00390625 12.98828125 C-7.66261719 13.65214844 -8.32132813 14.31601562 -9 15 C-9.33 15 -9.66 15 -10 15 C-10.3125 12.6875 -10.3125 12.6875 -10 10 C-8.36935236 8.94228261 -6.69719127 7.94726954 -5 7 C-3.96642853 5.35394174 -2.95939668 3.69036558 -2 2 C-1.34 2 -0.68 2 0 2 C0 1.34 0 0.68 0 0 Z " fill="#4475C6" transform="translate(689,593)"/>
<path d="M0 0 C0.33 0 0.66 0 1 0 C1.33 1.98 1.66 3.96 2 6 C2.66 5.34 3.32 4.68 4 4 C3.71890887 5.64767247 3.42481474 7.29313145 3.125 8.9375 C2.96257813 9.85402344 2.80015625 10.77054688 2.6328125 11.71484375 C2.42398438 12.46894531 2.21515625 13.22304688 2 14 C1.01 14.495 1.01 14.495 0 15 C-1.37252731 12.25494537 -1.13229255 9.99672588 -1.125 6.9375 C-1.12757813 5.85339844 -1.13015625 4.76929688 -1.1328125 3.65234375 C-1 1 -1 1 0 0 Z " fill="#2463D4" transform="translate(697,561)"/>
<path d="M0 0 C0.66 0 1.32 0 2 0 C1.5946828 8.66540227 0.38994476 16.65773999 -2 25 C-2.33 25 -2.66 25 -3 25 C-2.67 20.38 -2.34 15.76 -2 11 C-1.34 11 -0.68 11 0 11 C0 7.37 0 3.74 0 0 Z " fill="#4372C2" transform="translate(703,548)"/>
<path d="M0 0 C1.32 0 2.64 0 4 0 C2.35433477 5.68502535 -0.29032784 10.76681636 -3 16 C-4.22419163 12.06204091 -3.48320272 9.83887763 -2 6 C-1.34 6 -0.68 6 0 6 C0 4.02 0 2.04 0 0 Z " fill="#386AC3" transform="translate(440,529)"/>
<path d="M0 0 C5.79782471 2.44573251 9.28685474 4.89442527 13 10 C10.03 9.505 10.03 9.505 7 9 C7 8.01 7 7.02 7 6 C6.21625 5.87625 5.4325 5.7525 4.625 5.625 C2 5 2 5 0 3 C0 2.01 0 1.02 0 0 Z " fill="#376AC6" transform="translate(665,406)"/>
<path d="M0 0 C7.35251669 0.53410863 14.67902003 1.13140916 22 2 C22 2.33 22 2.66 22 3 C15.07 3 8.14 3 1 3 C0.67 2.01 0.34 1.02 0 0 Z " fill="#1A5AD3" transform="translate(578,397)"/>
<path d="M0 0 C-0.99 0.66 -1.98 1.32 -3 2 C-3 3.32 -3 4.64 -3 6 C-5.97 6 -8.94 6 -12 6 C-11 3 -11 3 -9.00390625 1.796875 C-8.19824219 1.45140625 -7.39257812 1.1059375 -6.5625 0.75 C-5.75941406 0.39421875 -4.95632813 0.0384375 -4.12890625 -0.328125 C-2 -1 -2 -1 0 0 Z " fill="#2163DC" transform="translate(571,402)"/>
<path d="M0 0 C2.06547922 3.09821883 3.56243611 6.18449352 5.125 9.5625 C5.66382813 10.71878906 6.20265625 11.87507813 6.7578125 13.06640625 C8 16 8 16 8 18 C7.34 18 6.68 18 6 18 C6 17.01 6 16.02 6 15 C4.68 14.67 3.36 14.34 2 14 C1.66179834 12.4176994 1.32964061 10.83410625 1 9.25 C0.814375 8.36828125 0.62875 7.4865625 0.4375 6.578125 C0 4 0 4 0 0 Z " fill="#3B70CA" transform="translate(398,472)"/>
<path d="M0 0 C4.95 0 9.9 0 15 0 C15 0.66 15 1.32 15 2 C12.05613377 3.47193312 9.62609964 2.84936173 6.375 2.5625 C5.18648437 2.46066406 3.99796875 2.35882812 2.7734375 2.25390625 C1.85820313 2.17011719 0.94296875 2.08632813 0 2 C0 1.34 0 0.68 0 0 Z " fill="#1D5DD0" transform="translate(632,624)"/>
<path d="M0 0 C4.33304076 0.64465202 7.86672065 2.18925122 11.8125 4.0625 C12.97394531 4.61035156 14.13539063 5.15820312 15.33203125 5.72265625 C16.21246094 6.14417969 17.09289062 6.56570313 18 7 C14.87785944 7.99828099 14.27119974 8.12380858 11.125 6.6875 C10.09375 6.130625 9.0625 5.57375 8 5 C6.00779443 4.31039038 4.00894394 3.63920943 2 3 C1.34 2.67 0.68 2.34 0 2 C0 1.34 0 0.68 0 0 Z " fill="#4475C5" transform="translate(647,398)"/>
<path d="M0 0 C0.66 0 1.32 0 2 0 C2.66 1.98 3.32 3.96 4 6 C4.66 6 5.32 6 6 6 C6.12117188 6.63808594 6.24234375 7.27617187 6.3671875 7.93359375 C6.53476562 8.75988281 6.70234375 9.58617187 6.875 10.4375 C7.03742188 11.26121094 7.19984375 12.08492188 7.3671875 12.93359375 C7.68042969 13.95646484 7.68042969 13.95646484 8 15 C8.66 15.33 9.32 15.66 10 16 C9.34 16.66 8.68 17.32 8 18 C6.66180502 15.3773768 5.3292849 12.75213401 4 10.125 C3.6184375 9.37863281 3.236875 8.63226563 2.84375 7.86328125 C2.4828125 7.14785156 2.121875 6.43242187 1.75 5.6953125 C1.41484375 5.03547363 1.0796875 4.37563477 0.734375 3.69580078 C0 2 0 2 0 0 Z " fill="#3C6DC2" transform="translate(349,469)"/>
<path d="M0 0 C0.66 0.33 1.32 0.66 2 1 C1.88623383 3.12563103 1.75864369 5.2505261 1.625 7.375 C1.52058594 9.15003906 1.52058594 9.15003906 1.4140625 10.9609375 C1 14 1 14 -1 16 C-1.02692484 13.70839681 -1.04636124 11.41670454 -1.0625 9.125 C-1.07410156 7.84882813 -1.08570313 6.57265625 -1.09765625 5.2578125 C-1 2 -1 2 0 0 Z " fill="#1E5DD6" transform="translate(697,444)"/>
<path d="M0 0 C0.66 0 1.32 0 2 0 C1.34 5.28 0.68 10.56 0 16 C-0.66 16 -1.32 16 -2 16 C-2.2358396 10.22192976 -1.86783046 5.48675196 0 0 Z " fill="#E1F0FC" transform="translate(517,459)"/>
<path d="M0 0 C1.76227952 2.64341928 3.19871008 5.23077235 4.625 8.0625 C5.07101562 8.94035156 5.51703125 9.81820313 5.9765625 10.72265625 C7 13 7 13 7 15 C6.34 15 5.68 15 5 15 C5 14.34 5 13.68 5 13 C4.01 13 3.02 13 2 13 C1.66127487 11.58461283 1.32925376 10.16762037 1 8.75 C0.814375 7.96109375 0.62875 7.1721875 0.4375 6.359375 C0 4 0 4 0 0 Z " fill="#4070C5" transform="translate(376,424)"/>
<path d="M0 0 C0 0.66 0 1.32 0 2 C-1.6232687 2.6708712 -3.24867578 3.33657029 -4.875 4 C-5.77992188 4.37125 -6.68484375 4.7425 -7.6171875 5.125 C-10 6 -10 6 -12 6 C-12 6.66 -12 7.32 -12 8 C-13.98 8.33 -15.96 8.66 -18 9 C-14.95403002 5.55672959 -12.12934091 3.94337402 -7.875 2.25 C-6.82054687 1.82203125 -5.76609375 1.3940625 -4.6796875 0.953125 C-2 0 -2 0 0 0 Z " fill="#4373C3" transform="translate(572,399)"/>
<path d="M0 0 C0.66 0.33 1.32 0.66 2 1 C1.5020163 4.73487777 1.12508244 6.81237635 -1 10 C-1.66 10 -2.32 10 -3 10 C-3 10.66 -3 11.32 -3 12 C-3.99 11.67 -4.98 11.34 -6 11 C-5.34 11 -4.68 11 -4 11 C-3.79503906 10.37351562 -3.59007812 9.74703125 -3.37890625 9.1015625 C-3.10949219 8.28429687 -2.84007812 7.46703125 -2.5625 6.625 C-2.29566406 5.81289063 -2.02882813 5.00078125 -1.75390625 4.1640625 C-1 2 -1 2 0 0 Z " fill="#3F71CB" transform="translate(420,482)"/>
<path d="M0 0 C0.66 0.33 1.32 0.66 2 1 C1.67 2.65 1.34 4.3 1 6 C0.34 6 -0.32 6 -1 6 C-1 7.32 -1 8.64 -1 10 C-1.66 10 -2.32 10 -3 10 C-3.33 11.65 -3.66 13.3 -4 15 C-4.66 15 -5.32 15 -6 15 C-4.40109514 9.80355921 -2.25861997 4.93387858 0 0 Z " fill="#4170C5" transform="translate(458,399)"/>
<path d="M0 0 C4.29 0 8.58 0 13 0 C13.33 1.32 13.66 2.64 14 4 C13.34 3.67 12.68 3.34 12 3 C9.14693938 2.72641885 6.29429544 2.55374758 3.43359375 2.37890625 C2.63050781 2.25386719 1.82742188 2.12882812 1 2 C0.67 1.34 0.34 0.68 0 0 Z " fill="#195AD7" transform="translate(625,432)"/>
<path d="M0 0 C0.33 0.99 0.66 1.98 1 3 C-3.29 3 -7.58 3 -12 3 C-12 2.34 -12 1.68 -12 1 C-8.0186217 -0.3271261 -4.14954773 -0.06915913 0 0 Z " fill="#1C5BD1" transform="translate(639,589)"/>
<path d="M0 0 C0.66 0.33 1.32 0.66 2 1 C-1.3 4.3 -4.6 7.6 -8 11 C-8.66 10.67 -9.32 10.34 -10 10 C-3.84965831 2.51708428 -3.84965831 2.51708428 0 0 Z " fill="#DFEEFA" transform="translate(582,440)"/>
<path d="M0 0 C0.33 0 0.66 0 1 0 C0.88490339 1.41750563 0.75746342 2.83401169 0.625 4.25 C0.55539062 5.03890625 0.48578125 5.8278125 0.4140625 6.640625 C-0.01507113 9.085877 -0.78600638 10.84836903 -2 13 C-2.99 13 -3.98 13 -5 13 C-3.58192622 8.52761347 -1.88695626 4.28853694 0 0 Z " fill="#3C6FCB" transform="translate(445,427)"/>
<path d="M0 0 C0.66 0.33 1.32 0.66 2 1 C0.02 4.96 -1.96 8.92 -4 13 C-4.92538169 9.29847322 -5.08174162 8.36541838 -4 5 C-3.34 5 -2.68 5 -2 5 C-2 4.34 -2 3.68 -2 3 C-1.34 3 -0.68 3 0 3 C0 2.01 0 1.02 0 0 Z " fill="#4370C1" transform="translate(492,430)"/>
<path d="M0 0 C0.66 0.33 1.32 0.66 2 1 C1.113125 1.721875 0.22625 2.44375 -0.6875 3.1875 C-3.63741207 5.63992096 -6.32793794 8.24934788 -9 11 C-9.33 10.01 -9.66 9.02 -10 8 C-6.7 5.36 -3.4 2.72 0 0 Z " fill="#396CC6" transform="translate(552,408)"/>
<path d="M0 0 C1 3 1 3 -0.21484375 5.69921875 C-0.78332031 6.68535156 -1.35179687 7.67148437 -1.9375 8.6875 C-2.50339844 9.68136719 -3.06929688 10.67523438 -3.65234375 11.69921875 C-4.31943359 12.83810547 -4.31943359 12.83810547 -5 14 C-6 11 -6 11 -5.0390625 8.5546875 C-4.57242187 7.67039062 -4.10578125 6.78609375 -3.625 5.875 C-3.16351563 4.98554688 -2.70203125 4.09609375 -2.2265625 3.1796875 C-1 1 -1 1 0 0 Z " fill="#3C6BBE" transform="translate(474,467)"/>
<path d="M0 0 C0.66 0.33 1.32 0.66 2 1 C1.2884375 1.61875 1.2884375 1.61875 0.5625 2.25 C-1.16266518 4.182185 -1.56584875 5.48192275 -2 8 C-3.65 8 -5.3 8 -7 8 C-5.50902342 4.2047869 -3.24299151 2.38957269 0 0 Z " fill="#2463DA" transform="translate(554,408)"/>
<path d="M0 0 C-0.99 1.485 -0.99 1.485 -2 3 C-4.1640625 3.29296875 -4.1640625 3.29296875 -6.625 3.1875 C-7.44226563 3.16042969 -8.25953125 3.13335938 -9.1015625 3.10546875 C-9.72804688 3.07066406 -10.35453125 3.03585937 -11 3 C-8.89427904 -1.21144191 -4.11694326 -0.07767817 0 0 Z " fill="#DEF0FB" transform="translate(652,626)"/>
<path d="M0 0 C2 3 2 3 1.625 6.1875 C1.41875 7.115625 1.2125 8.04375 1 9 C0.67 8.01 0.34 7.02 0 6 C-0.66 6 -1.32 6 -2 6 C-2.66 7.32 -3.32 8.64 -4 10 C-4.66 9.67 -5.32 9.34 -6 9 C-4.02 6.03 -2.04 3.06 0 0 Z " fill="#3B71CC" transform="translate(653,567)"/>
<path d="M0 0 C2 3 2 3 1.625 5.6875 C1.41875 6.450625 1.2125 7.21375 1 8 C-0.32 7.67 -1.64 7.34 -3 7 C-2.38722388 4.03824877 -1.74627478 2.61941217 0 0 Z " fill="#1E61DB" transform="translate(542,417)"/>
<path d="M0 0 C1.32 0 2.64 0 4 0 C4 2.97 4 5.94 4 9 C3.34 9 2.68 9 2 9 C1.34 6.03 0.68 3.06 0 0 Z " fill="#1E60D7" transform="translate(316,399)"/>
<path d="M0 0 C1.13732426 3.40401948 0.83989957 5.77456664 0.0625 9.25 C-0.13214844 10.14203125 -0.32679688 11.0340625 -0.52734375 11.953125 C-0.68332031 12.62859375 -0.83929687 13.3040625 -1 14 C-1.66 13.34 -2.32 12.68 -3 12 C-2.67176873 7.65093573 -1.80260764 3.9657368 0 0 Z " fill="#4475CA" transform="translate(523,445)"/>
<path d="M0 0 C0.66 0 1.32 0 2 0 C1.37240135 2.92879371 0.41377341 5.36095629 -1 8 C-1.99 7.67 -2.98 7.34 -4 7 C-3.34 5.35 -2.68 3.7 -2 2 C-1.34 2 -0.68 2 0 2 C0 1.34 0 0.68 0 0 Z " fill="#3B71CC" transform="translate(485,443)"/>
<path d="M0 0 C2.53078176 3.13334885 4.51376532 6.24530187 6 10 C5.07421875 12.1875 5.07421875 12.1875 4 14 C0.74031891 4.58997722 0.74031891 4.58997722 0 0 Z " fill="#4876C7" transform="translate(692,432)"/>
<path d="M0 0 C3.96 0 7.92 0 12 0 C12 0.33 12 0.66 12 1 C10.02 1 8.04 1 6 1 C6 1.66 6 2.32 6 3 C4.35 3 2.7 3 1 3 C0.67 2.01 0.34 1.02 0 0 Z " fill="#1F61DA" transform="translate(584,432)"/>
<path d="M0 0 C1.07033136 3.21822604 0.95795392 5.03142433 -0.25 8.1875 C-0.62898438 9.22970703 -0.62898438 9.22970703 -1.015625 10.29296875 C-2 12 -2 12 -5 13 C-3.58192622 8.52761347 -1.88695626 4.28853694 0 0 Z " fill="#4978C9" transform="translate(451,414)"/>
<path d="M0 0 C0.99 0 1.98 0 3 0 C6.125 6.625 6.125 6.625 5 10 C5 9.34 5 8.68 5 8 C4.34 8 3.68 8 3 8 C0 2.25 0 2.25 0 0 Z " fill="#3067CC" transform="translate(651,451)"/>
<path d="M0 0 C0.99 0.33 1.98 0.66 3 1 C3 1.66 3 2.32 3 3 C3.66 3 4.32 3 5 3 C5.33 5.64 5.66 8.28 6 11 C3.13546142 7.58983503 1.65296434 4.09305456 0 0 Z " fill="#4374C8" transform="translate(374,520)"/>
<path d="M0 0 C1.69433918 3.0469629 2.49467112 5.82821466 3.125 9.25 C3.29257812 10.14203125 3.46015625 11.0340625 3.6328125 11.953125 C3.75398437 12.62859375 3.87515625 13.3040625 4 14 C2 13 2 13 0.875 10.9375 C-0.2583306 7.13274727 -0.13434296 3.9631172 0 0 Z " fill="#4B79C9" transform="translate(699,447)"/>
<path d="M0 0 C0.66 0 1.32 0 2 0 C3.125 7.75 3.125 7.75 2 10 C1.34 10 0.68 10 0 10 C0 6.7 0 3.4 0 0 Z " fill="#1F5ED3" transform="translate(376,430)"/>
<path d="M0 0 C1.65 0 3.3 0 5 0 C3.68 1.65 2.36 3.3 1 5 C0.01 4.67 -0.98 4.34 -2 4 C-1.34 2.68 -0.68 1.36 0 0 Z " fill="#3068C8" transform="translate(672,609)"/>
<path d="M0 0 C0.66 0 1.32 0 2 0 C0.55049545 3.7910119 -1.15172566 7.3874638 -3 11 C-3.75 9.4375 -3.75 9.4375 -4 7 C-2.86915563 4.49713591 -1.47860484 2.32992278 0 0 Z " fill="#DCF0FC" transform="translate(529,429)"/>
<path d="M0 0 C0.33 0 0.66 0 1 0 C1 3.3 1 6.6 1 10 C0.01 10.495 0.01 10.495 -1 11 C-1.66 9.02 -2.32 7.04 -3 5 C-2.34 4.67 -1.68 4.34 -1 4 C-0.34786708 1.97536745 -0.34786708 1.97536745 0 0 Z " fill="#2160D5" transform="translate(455,409)"/>
<path d="M0 0 C0.66 0 1.32 0 2 0 C2 0.66 2 1.32 2 2 C2.66 2 3.32 2 4 2 C4.33 3.32 4.66 4.64 5 6 C3.35 5.67 1.7 5.34 0 5 C0 3.35 0 1.7 0 0 Z " fill="#336BD3" transform="translate(362,399)"/>
<path d="M0 0 C0.66 0 1.32 0 2 0 C0.8141763 3.37503669 -0.27573689 5.64722731 -3 8 C-3.66 7.67 -4.32 7.34 -5 7 C-3.625 4.5 -3.625 4.5 -2 2 C-1.34 2 -0.68 2 0 2 C0 1.34 0 0.68 0 0 Z " fill="#3C6CC1" transform="translate(689,593)"/>
<path d="M0 0 C0.99 0.33 1.98 0.66 3 1 C3.33 2.98 3.66 4.96 4 7 C3.01 7.495 3.01 7.495 2 8 C-0.1519437 4.77208445 -0.20086443 3.71599191 0 0 Z " fill="#2B64CB" transform="translate(645,440)"/>
<path d="M0 0 C1.77706209 2.66559313 2.87548273 5.0280615 4 8 C3.01 8 2.02 8 1 8 C1 7.01 1 6.02 1 5 C0.34 5 -0.32 5 -1 5 C-0.67 3.35 -0.34 1.7 0 0 Z " fill="#4173CD" transform="translate(372,415)"/>
<path d="M0 0 C2.97 0 5.94 0 9 0 C9 0.99 9 1.98 9 3 C2.25 2.25 2.25 2.25 0 0 Z " fill="#D6EAF9" transform="translate(589,587)"/>
<path d="M0 0 C2 2 2 2 2.125 5.625 C2.08375 6.73875 2.0425 7.8525 2 9 C1.01 9.495 1.01 9.495 0 10 C-0.95024979 6.30458414 -0.95024979 3.69541586 0 0 Z " fill="#1B5BD2" transform="translate(446,427)"/>
<path d="M0 0 C0.66 0 1.32 0 2 0 C0.25 5.75 0.25 5.75 -2 8 C-2.6875 6.25 -2.6875 6.25 -3 4 C-1.6875 1.75 -1.6875 1.75 0 0 Z " fill="#4475C5" transform="translate(500,414)"/>
<path d="M0 0 C0.66 0.33 1.32 0.66 2 1 C2 2.98 2 4.96 2 7 C1.01 7 0.02 7 -1 7 C-0.67 4.69 -0.34 2.38 0 0 Z " fill="#2E63C6" transform="translate(697,444)"/>
</svg>
